HIERARCHY
ROOT hip
{
	OFFSET 0.000000 0.000000 0.000000 
	CHANNELS 6 Xposition Yposition Zposition Xrotation Zrotation Yrotation
	JOINT abdomen
	{
		OFFSET 0.000000 3.402643 0.000000 
		CHANNELS 3 Xrotation Zrotation Yrotation
		JOINT chest
		{
			OFFSET 0.000000 8.438565 -0.680529 
			CHANNELS 3 Xrotation Zrotation Yrotation
			JOINT neck
			{
				OFFSET 0.000000 10.207942 -0.272212 
				CHANNELS 3 Xrotation Zrotation Yrotation
				JOINT head
				{
					OFFSET 0.000000 3.130431 0.000000 
					CHANNELS 3 Xrotation Zrotation Yrotation
					End Site
					{
						OFFSET 0.000000 3.130435 0.000000 
					}
				}
			}
			JOINT lCollar
			{
				OFFSET 3.470700 6.669187 -0.816635 
				CHANNELS 3 Yrotation Zrotation Xrotation
				JOINT lShldr
				{
					OFFSET 3.198488 0.000000 0.000000 
					CHANNELS 3 Zrotation Yrotation Xrotation
					JOINT lForeArm
					{
						OFFSET 10.139888 0.000000 0.000000 
						CHANNELS 3 Yrotation Zrotation Xrotation
						JOINT lHand
						{
							OFFSET 8.370511 0.000000 0.000000 
							CHANNELS 3 Zrotation Yrotation Xrotation
							End Site
							{
								OFFSET 4.083176 0.000000 0.000000 
							}
						}
					}
				}
			}
			JOINT rCollar
			{
				OFFSET -3.470700 6.669187 -0.816635 
				CHANNELS 3 Yrotation Zrotation Xrotation
				JOINT rShldr
				{
					OFFSET -3.198488 0.000000 0.000000 
					CHANNELS 3 Zrotation Yrotation Xrotation
					JOINT rForeArm
					{
						OFFSET -10.139888 0.000000 0.000000 
						CHANNELS 3 Yrotation Zrotation Xrotation
						JOINT rHand
						{
							OFFSET -8.370511 0.000000 0.000000 
							CHANNELS 3 Zrotation Yrotation Xrotation
							End Site
							{
								OFFSET -4.083176 0.000000 0.000000 
							}
						}
					}
				}
			}
		}
	}
	JOINT lThigh
	{
		OFFSET 5.308129 -1.633274 1.361059 
		CHANNELS 3 Xrotation Zrotation Yrotation
		JOINT lShin
		{
			OFFSET -2.041588 -20.007561 0.000000 
			CHANNELS 3 Xrotation Zrotation Yrotation
			JOINT lFoot
			{
				OFFSET 0.000000 -19.190928 -1.224953 
				CHANNELS 3 Xrotation Yrotation Zrotation
				End Site
				{
					OFFSET 0.000000 -2.449906 4.627600 
				}
			}
		}
	}
	JOINT rThigh
	{
		OFFSET -5.308129 -1.633274 1.361059 
		CHANNELS 3 Xrotation Zrotation Yrotation
		JOINT rShin
		{
			OFFSET 2.041588 -20.007561 0.000000 
			CHANNELS 3 Xrotation Zrotation Yrotation
			JOINT rFoot
			{
				OFFSET 0.000000 -19.190928 -1.224953 
				CHANNELS 3 Xrotation Yrotation Zrotation
				End Site
				{
					OFFSET 0.000000 -2.449906 4.627600 
				}
			}
		}
	}
}
MOTION
Frames: 16
Frame Time: 0.033333
26.179874 50.195313 -18.682365 -1.468568 4.080695 87.522690 41.477982 -0.351585 -2.030772 -20.839844 0.000000 0.000000 -17.663889 16.099358 11.091138 8.584577 -3.811294 0.287245 -4.754609 -0.109183 -0.002653 -53.450222 24.247141 -3.837829 -20.112303 0.205460 49.868027 20.652719 -37.473755 26.824465 4.754609 0.109183 -0.002672 61.426468 -18.894920 -23.127748 8.395762 -0.885598 36.202690 10.029699 37.136864 62.441769 8.043859 4.888181 -34.058392 8.660670 5.249348 -23.046455 17.958088 42.420849 -30.378065 12.360789 -9.841457 2.029286 -5.434864 -1.130850 5.601982 23.762733 -3.702984 13.185272 
25.823078 48.985638 -18.581352 -1.654060 3.816773 86.013153 42.313717 -0.425316 -2.587007 -20.839844 0.000000 0.000000 -20.476080 17.106325 13.401613 8.584577 -3.811294 0.287245 -4.754609 -0.109183 -0.002653 -42.757179 35.381710 -8.631294 -38.566628 -15.220226 44.784107 20.452171 -41.209381 31.801296 4.754609 0.109183 -0.002672 64.298080 -32.926289 -26.001671 45.580494 -1.275940 35.700558 18.747957 39.208511 60.404362 11.638524 2.752143 -34.042450 4.681586 8.908571 -18.420258 18.322306 46.649658 -26.107950 10.113642 -6.881450 4.925763 -0.459209 -3.533022 4.542840 18.080147 -7.909400 12.310221 
25.304417 47.213051 -18.466270 -1.125048 3.417312 84.981873 43.084187 -1.158429 -3.360253 -20.839844 0.000000 0.000000 -23.379795 17.858204 14.026825 8.584577 -3.811294 0.287245 -4.754609 -0.109183 -0.002653 -30.773792 44.019875 -3.435899 -55.207851 -24.047895 40.393013 25.380070 -39.038967 25.441715 4.754609 0.109183 -0.002672 65.858940 -45.760136 -30.004044 74.876465 0.400213 32.515438 24.052177 38.333202 55.878712 16.820465 -1.369922 -34.414692 -0.517561 19.192802 -12.907692 17.160971 48.475140 -21.464081 3.720830 -4.735233 6.934417 12.891538 -5.906361 2.667460 3.534045 -13.888422 8.999612 
24.669636 45.358692 -18.435020 -0.586549 2.617051 84.524025 43.637985 -1.727822 -3.661761 -20.839844 0.000000 0.000000 -26.253679 17.988180 13.331759 8.584577 -3.811294 0.287245 -4.754609 -0.109183 -0.002653 -25.319620 46.168858 -1.595291 -60.009434 -26.288818 38.277069 25.590006 -39.217091 24.574467 4.754609 0.109183 -0.002672 64.341469 -51.022301 -31.553152 84.704689 1.145288 30.613312 25.862858 38.895576 53.712486 13.297126 -8.262099 -35.803173 12.630997 25.585598 -5.484890 3.662808 50.799885 -13.235445 -2.973265 -4.300149 6.318016 25.620296 -6.458407 0.712418 -12.386402 -15.757962 5.345007 
24.119221 44.275028 -18.511055 -0.810638 0.859289 83.513237 43.500927 -1.831182 -2.917066 -20.839844 0.000000 0.000000 -28.809898 17.985474 12.969867 8.584577 -3.811294 0.287245 -4.754609 -0.109183 -0.002653 -30.090744 42.627670 -3.654815 -53.148800 -22.942953 41.090096 24.529268 -40.977062 25.400826 4.754609 0.109183 -0.002672 61.026806 -47.945267 -29.096989 78.434746 1.475541 31.796576 25.811909 38.513218 54.917316 7.409152 -11.463948 -35.466755 24.039413 26.037420 -0.206311 -7.220231 51.404358 -6.979076 -8.655779 -4.928759 4.713994 32.469379 -5.337201 0.426335 -20.030321 -13.812524 4.496226 
23.785419 44.185993 -18.632912 -1.777534 -0.839440 81.695969 43.187202 -1.683249 -1.418516 -20.839844 0.000000 0.000000 -30.050549 18.271763 13.538452 8.584577 -3.811294 0.287245 -4.754609 -0.109183 -0.002653 -39.975140 36.555927 -6.870165 -42.276505 -16.757776 43.968407 22.287167 -42.589573 27.845625 4.754609 0.109183 -0.002672 57.913864 -38.256664 -24.510216 61.197258 1.466905 35.066479 21.873636 37.469009 56.630196 3.513154 -11.111709 -34.622540 27.825472 24.600138 1.111802 -9.488786 51.589127 -5.339823 -11.869619 -5.330130 3.671779 33.312920 -3.393394 1.429735 -18.732082 -10.715940 5.153371 
23.652637 44.593723 -18.713615 -2.901325 -1.453214 80.288467 43.138798 -1.455942 -0.163148 -20.839844 0.000000 0.000000 -29.649618 18.380699 14.487190 8.584577 -3.811294 0.287245 -4.754609 -0.109183 -0.002653 -49.108154 31.343756 -8.556762 -32.604317 -11.486382 46.569134 18.850779 -43.400871 32.554436 4.754609 0.109183 -0.002672 56.659218 -25.306290 -21.077749 36.262939 0.598254 38.103329 15.259758 38.284657 58.770336 3.308300 -9.422524 -33.891094 26.088335 24.356754 0.117514 -7.003255 51.523754 -6.194065 -12.170649 -5.641639 2.846385 31.186781 -1.196327 2.409014 -14.680155 -7.950927 6.167495 
23.691181 44.895756 -18.745903 -4.240567 -1.879610 80.080673 42.820045 -0.227356 0.826384 -20.839844 0.000000 0.000000 -29.018028 17.642931 15.475289 8.584577 -3.811294 0.287245 -4.754609 -0.109183 -0.002653 -55.626785 29.172014 -7.551303 -26.548819 -9.055598 51.134022 16.379219 -43.584576 37.230984 4.754609 0.109183 -0.002672 56.005867 -14.002338 -19.781601 11.557592 -0.046821 39.392872 9.852170 40.692055 62.038643 3.568205 -7.556230 -33.075779 24.594515 24.688896 -1.201188 -5.146408 50.898251 -7.188867 -11.681155 -5.494725 2.548869 29.434963 0.995932 2.744054 -13.024782 -6.639104 7.008596 
23.820835 44.855137 -18.786003 -6.201920 -3.330050 80.674118 42.102886 2.572057 2.199901 -20.839844 0.000000 0.000000 -30.498348 16.411045 16.209045 8.584577 -3.811294 0.287245 -4.754609 -0.109183 -0.002653 -59.496937 30.171629 -5.589872 -24.988899 -10.145513 55.531391 16.411266 -43.309227 38.678028 4.754609 0.109183 -0.002672 56.062935 -8.786655 -19.771557 -1.129237 0.068039 38.796814 9.295558 42.468704 63.706841 1.552902 -5.771503 -32.919041 26.994940 24.758986 -1.677008 -5.910706 50.947845 -7.706323 -12.029037 -3.817672 3.452252 28.302700 2.523967 2.314048 -13.856066 -7.357723 6.150419 
23.893742 44.466663 -18.860985 -8.751000 -5.463391 81.640343 41.768192 6.205896 4.015333 -20.839844 0.000000 0.000000 -35.053749 15.968352 16.332798 8.584577 -3.811294 0.287245 -4.754609 -0.109183 -0.002653 -60.990742 33.283291 -4.984463 -28.210403 -13.688388 54.922226 18.951721 -42.569958 34.592415 4.754609 0.109183 -0.002672 61.736732 -20.040150 -20.949091 25.058676 0.018909 35.702095 16.993341 36.859234 58.587688 -2.072281 -4.225690 -33.508904 32.170612 24.825495 -1.190274 -8.987979 51.704121 -6.790069 -13.240383 -0.361206 5.044161 27.605988 2.544273 0.893938 -15.581448 -9.203919 3.845794 
23.861454 43.914692 -18.964088 -11.030929 -7.017693 82.857826 42.039047 9.421787 5.472349 -20.839844 0.000000 0.000000 -40.393349 16.731026 15.729263 8.584577 -3.811294 0.287245 -4.754609 -0.109183 -0.002653 -60.560215 37.306816 -6.332824 -36.646622 -17.668795 48.001530 23.086941 -41.831047 26.239162 4.754609 0.109183 -0.002672 68.353539 -33.529911 -23.370384 60.881733 2.170002 29.143501 23.456156 29.253040 46.397041 -5.039187 -3.434022 -33.481625 36.925694 25.646183 0.089652 -13.487858 51.380650 -3.495116 -14.937047 2.869666 5.839371 28.702330 1.946334 -0.888781 -17.869211 -10.626625 2.193004 
23.871876 43.620991 -19.111458 -11.416458 -7.085048 83.985321 42.275703 10.591558 5.417428 -20.839844 0.000000 0.000000 -42.791203 17.770081 14.505379 8.584577 -3.811294 0.287245 -4.754609 -0.109183 -0.002653 -57.569614 40.038189 -8.185568 -50.167667 -21.293865 37.974792 27.624931 -40.491241 18.697008 4.754609 0.109183 -0.002672 68.231071 -41.220448 -22.996489 90.250046 10.977306 19.105562 19.540972 27.485199 33.014427 -5.439237 -4.155705 -32.512154 38.071018 27.144817 1.051796 -15.757254 49.952568 -1.187791 -16.070602 3.104701 5.346691 31.004543 2.063764 -1.783183 -18.960443 -11.115539 1.947803 
24.119221 43.864689 -19.310387 -9.282358 -5.561446 84.998772 42.047791 8.746605 3.578017 -20.839844 0.000000 0.000000 -41.143787 18.166458 12.978817 8.584577 -3.811294 0.287245 -4.754609 -0.109183 -0.002653 -50.524269 38.675987 -7.884320 -67.707344 -24.261162 28.416473 32.640617 -36.366203 15.109463 4.754609 0.109183 -0.002672 60.067204 -42.200710 -17.055965 112.752892 15.170557 7.235889 7.446077 27.145849 21.505470 -2.482131 -6.149438 -32.202995 34.046074 27.970387 0.244265 -14.463139 48.980152 -0.999753 -15.540333 0.243340 4.199892 32.905621 1.882886 -1.805239 -16.155535 -11.453746 2.810039 
24.612873 44.561970 -19.561897 -5.750418 -3.060722 86.499039 41.619026 4.907629 0.749529 -20.839844 0.000000 0.000000 -37.075237 18.105167 11.594131 8.584577 -3.811294 0.287245 -4.754609 -0.109183 -0.002653 -43.127518 30.702370 -7.129498 -83.768303 -23.776585 21.945200 36.320557 -31.297825 16.389524 4.754609 0.109183 -0.002672 49.475452 -32.339478 -9.140041 128.799347 17.783878 -1.838300 -7.688768 25.265814 14.865455 3.463443 -7.635346 -33.601357 24.622950 27.402266 -3.145154 -10.056120 49.137985 -2.939106 -14.064947 -3.260834 3.325040 34.699459 0.155882 -1.884227 -8.472434 -12.624075 3.904587 
25.188816 45.450855 -19.864449 -1.826337 -0.771092 88.364426 40.807922 0.437356 -1.974890 -20.839844 0.000000 0.000000 -32.178665 17.980028 10.536152 8.584577 -3.811294 0.287245 -4.754609 -0.109183 -0.002653 -39.915146 15.241151 -6.957510 -91.135231 -21.218687 20.559383 38.755646 -27.991064 19.481827 4.754609 0.109183 -0.002672 42.613316 -12.467550 -3.840688 135.677444 18.622351 -5.669878 -20.447977 20.534319 13.207986 9.926013 -6.963069 -34.908352 10.989538 24.167675 -8.529492 -2.807230 48.269382 -7.488585 -14.156312 -5.985037 3.738781 38.658298 -2.525444 -1.763551 -0.724101 -14.808262 3.746715 
25.728825 46.231987 -20.196142 2.451181 0.156107 89.362183 39.077873 -4.785052 -3.660782 -20.839844 0.000000 0.000000 -27.752771 18.110199 8.706294 8.584577 -3.811294 0.287245 -4.754609 -0.109183 -0.002653 -41.349380 -6.343381 -4.962403 -86.950188 -20.572784 23.223053 40.840214 -27.151899 20.793821 4.754609 0.109183 -0.002672 40.161648 10.057299 -0.623539 134.058212 20.765791 -5.899705 -27.331295 15.606856 13.941405 10.584531 -5.605732 -34.066494 4.426653 13.997068 -11.658175 -2.646583 45.406792 -5.748282 -17.327503 -7.576137 5.380782 44.793266 -5.827005 -1.031516 1.665333 -16.488661 1.810358 
